<?xml version="1.0" encoding="UTF-8"?>
<!DOCTYPE svg PUBLIC "-//W3C//DTD SVG 1.1//EN" "http://www.w3.org/Graphics/SVG/1.1/DTD/svg11.dtd">
<!-- Creator: CorelDRAW 2017 -->
<svg xmlns="http://www.w3.org/2000/svg" xml:space="preserve" width="109361px" height="105833px" version="1.1" style="shape-rendering:geometricPrecision; text-rendering:geometricPrecision; image-rendering:optimizeQuality; fill-rule:evenodd; clip-rule:evenodd"
viewBox="0 0 7161.853 7093.29"
 xmlns:xlink="http://www.w3.org/1999/xlink">
 <defs>
  <style type="text/css">
   <![CDATA[
    .fil0 {fill:#7688A1}
   ]]>
  </style>
 </defs>
 <g id="Слой_x0020_1">
  <metadata id="CorelCorpID_0Corel-Layer"/>
  <path class="fil0" d="M1571.818 3411.559c197.081,-226.744 616.826,-479.581 616.826,-828.873 0,-190.273 -926.619,-1130.928 -1113.202,-1228.824 -459.126,-202.749 -810.938,359.91 -958.141,713.462 -218.856,525.619 -102.935,1139.086 114.181,1644.19 421.635,980.755 1741.066,2345.055 2705.745,2860.806 489.508,261.715 1058.106,519.62 1622.355,520.97 440.11,0 1252.938,-349.053 1252.938,-867.414 0,-248.218 -1039.091,-1291.507 -1310.763,-1291.507 -231.962,0 -663.765,427.873 -790.303,616.826 -1053.847,-557.621 -1581.985,-1085.729 -2139.636,-2139.636z"/>
  <path class="fil0" d="M2818.457 2910.384l0 396.471c550.122,0 957.901,297.466 957.901,991.402l484.649 0c0,-834.991 -555.642,-1387.873 -1442.55,-1387.873z"/>
  <path class="fil0" d="M2818.457 2388.604c946.803,0 1925.579,880.07 1925.579,1909.653l426.854 -0.12c0,-1387.753 -1236.352,-2349.403 -2352.313,-2349.403l-0.12 439.87z"/>
  <path class="fil0" d="M5747.016 4298.257l412.637 0c26.693,-1743.734 -1578.956,-3317.532 -3341.556,-3309.164l0.36 423.315c1442.55,67.573 2740.776,1082.279 2928.559,2885.849z"/>
  <path class="fil0" d="M6737.789 4298.257l424.064 0c0,-2349.523 -1990.963,-4298.257 -4341.987,-4298.257l-0.48 436.721c1754.293,0 3786.376,1512.013 3918.403,3861.536z"/>
 </g>
</svg>
